<svg width="512" height="512" viewBox="0 0 512 512" fill="none" xmlns="http://www.w3.org/2000/svg">
  <!-- Moon Crescent (Light) -->
  <path d="M360 256C360 335.5 295.5 400 216 400C185.5 400 157.5 390.5 134 374C150 386 170 392 192 392C267.1 392 328 331.1 328 256C328 180.9 267.1 120 192 120C168 120 146 127 128 140C152 122 182 112 216 112C295.5 112 360 176.5 360 256Z" fill="#F8FAFC" />
  <!-- Dust Particles (Lighter Gray) -->
  <circle cx="140" cy="390" r="8" fill="#D1D5DB" fill-opacity="0.9" />
  <circle cx="115" cy="410" r="6" fill="#D1D5DB" fill-opacity="0.7" />
  <circle cx="150" cy="420" r="4" fill="#D1D5DB" fill-opacity="0.6" />
  <circle cx="90" cy="380" r="4" fill="#D1D5DB" fill-opacity="0.5" />
  <circle cx="170" cy="380" r="3" fill="#D1D5DB" fill-opacity="0.8" />
</svg>